<svg width="16" height="12" viewBox="0 0 16 12" fill="none" xmlns="http://www.w3.org/2000/svg">
    <path d="M10 1C10.2652 1 10.5196 1.10536 10.7071 1.29289C10.8946 1.48043 11 1.73478 11 2V10C11 10.2652 10.8946 10.5196 10.7071 10.7071C10.5196 10.8946 10.2652 11 10 11H6C5.73478 11 5.48043 10.8946 5.29289 10.7071C5.10536 10.5196 5 10.2652 5 10V2C5 1.73478 5.10536 1.48043 5.29289 1.29289C5.48043 1.10536 5.73478 1 6 1H10ZM6 0C5.46957 0 4.96086 0.210714 4.58579 0.585786C4.21071 0.960859 4 1.46957 4 2V10C4 10.5304 4.21071 11.0391 4.58579 11.4142C4.96086 11.7893 5.46957 12 6 12H10C10.5304 12 11.0391 11.7893 11.4142 11.4142C11.7893 11.0391 12 10.5304 12 10V2C12 1.46957 11.7893 0.960859 11.4142 0.585786C11.0391 0.210714 10.5304 0 10 0H6Z" fill="black" />
    <path d="M8.00001 10C8.26523 10 8.51958 9.89465 8.70712 9.70712C8.89465 9.51958 9.00001 9.26523 9.00001 9.00001C9.00001 8.73479 8.89465 8.48044 8.70712 8.2929C8.51958 8.10537 8.26523 8.00001 8.00001 8.00001C7.73479 8.00001 7.48044 8.10537 7.2929 8.2929C7.10537 8.48044 7.00001 8.73479 7.00001 9.00001C7.00001 9.26523 7.10537 9.51958 7.2929 9.70712C7.48044 9.89465 7.73479 10 8.00001 10ZM1.59901 2.05801C1.65706 2.08873 1.7085 2.13058 1.75037 2.18118C1.79225 2.23178 1.82374 2.29014 1.84306 2.35292C1.86238 2.41569 1.86913 2.48166 1.86295 2.54705C1.85676 2.61244 1.83775 2.67597 1.80701 2.73401C1.27525 3.74041 0.998175 4.86177 1.00001 6.00001C1.00001 7.18001 1.29201 8.29201 1.80701 9.26601C1.86907 9.38323 1.88202 9.52031 1.84301 9.64709C1.804 9.77386 1.71623 9.87995 1.59901 9.94201C1.48178 10.0041 1.3447 10.017 1.21793 9.97801C1.09116 9.93901 0.985069 9.85124 0.923008 9.73401C0.315032 8.58339 -0.00186755 7.30137 8.27941e-06 6.00001C8.27941e-06 4.65301 0.334008 3.38101 0.923008 2.26601C0.953726 2.20795 0.995581 2.15652 1.04618 2.11464C1.09678 2.07277 1.15514 2.04127 1.21792 2.02196C1.28069 2.00264 1.34666 1.99588 1.41205 2.00207C1.47744 2.00826 1.54097 2.02726 1.59901 2.05801ZM14.401 2.05801C14.459 2.02726 14.5226 2.00826 14.588 2.00207C14.6534 1.99588 14.7193 2.00264 14.7821 2.02196C14.8449 2.04127 14.9032 2.07277 14.9538 2.11464C15.0044 2.15652 15.0463 2.20795 15.077 2.26601C15.685 3.41661 16.0019 4.69864 16 6.00001C16.0019 7.30138 15.685 8.58341 15.077 9.73401C15.0149 9.85124 14.9089 9.93901 14.7821 9.97801C14.6553 10.017 14.5182 10.0041 14.401 9.94201C14.2838 9.87995 14.196 9.77386 14.157 9.64709C14.118 9.52031 14.1309 9.38323 14.193 9.26601C14.7248 8.25961 15.0018 7.13825 15 6.00001C15 4.82001 14.708 3.70801 14.193 2.73401C14.1623 2.67597 14.1433 2.61244 14.1371 2.54705C14.1309 2.48166 14.1376 2.41569 14.157 2.35292C14.1763 2.29014 14.2078 2.23178 14.2496 2.18118C14.2915 2.13058 14.343 2.08873 14.401 2.05801ZM3.05701 3.53401C3.11823 3.55788 3.17414 3.59358 3.22155 3.63908C3.26896 3.68457 3.30694 3.73896 3.33332 3.79914C3.3597 3.85933 3.37395 3.92412 3.37527 3.98981C3.37659 4.05551 3.36495 4.12082 3.34101 4.18201C3.11495 4.76144 2.99929 5.37805 3.00001 6.00001C3.00001 6.64201 3.12001 7.25501 3.34001 7.81801C3.36791 7.87981 3.38296 7.94664 3.38422 8.01444C3.38549 8.08224 3.37295 8.14958 3.34737 8.21238C3.32179 8.27518 3.2837 8.33212 3.23542 8.37974C3.18715 8.42736 3.12969 8.46466 3.06655 8.48938C3.0034 8.51409 2.93589 8.5257 2.86811 8.52351C2.80034 8.52131 2.73372 8.50535 2.67231 8.4766C2.6109 8.44785 2.55597 8.40691 2.51088 8.35626C2.46579 8.30562 2.43147 8.24633 2.41001 8.18201C2.13847 7.48661 1.99942 6.74655 2.00001 6.00001C2.00001 5.23101 2.14501 4.49501 2.41001 3.81801C2.45823 3.69461 2.55344 3.5954 2.67475 3.54215C2.79606 3.4889 2.93354 3.48597 3.05701 3.53401ZM12.943 3.53401C13.0042 3.51007 13.0695 3.49843 13.1352 3.49975C13.2009 3.50107 13.2657 3.51532 13.3259 3.5417C13.3861 3.56807 13.4404 3.60605 13.4859 3.65347C13.5314 3.70088 13.5671 3.75679 13.591 3.81801C13.855 4.49501 14 5.23101 14 6.00001C14 6.76901 13.855 7.50501 13.59 8.18201C13.5373 8.29884 13.4416 8.39095 13.3229 8.43931C13.2042 8.48767 13.0714 8.48858 12.9521 8.44186C12.8327 8.39513 12.7358 8.30435 12.6815 8.18825C12.6271 8.07215 12.6194 7.93961 12.66 7.81801C12.88 7.25501 13 6.64201 13 6.00001C13 5.35801 12.88 4.74501 12.66 4.18201C12.6116 4.05855 12.6142 3.92092 12.6673 3.7994C12.7204 3.67788 12.8196 3.58241 12.943 3.53401Z" fill="black" />
</svg>
